name rise37.2698peak67.6939fall79.5734.mot
datacolumns 19
datarows 35
range 15.16327800000000 15.21994000000000
endheader
time	ground_force1_vx	ground_force1_vy	ground_force1_vz	ground_force1_px	ground_force1_py	ground_force1_pz	ground_force2_vx	ground_force2_vy	ground_force2_vz	ground_force2_px	ground_force2_py	ground_force2_pz	ground_torque1_x	ground_torque1_y	ground_torque1_z	ground_torque2_x	ground_torque2_y	ground_torque2_z	
15.16327800000000	-9.11278600000000	45.29083600000000	-12.42264200000000	0.34207600000000	0.00000000000000	0.08638100000000	-52.90185500000000	787.07598399999995	-43.88547600000000	0.11664600000000	0.00000000000000	-0.07752700000000	0.00000000000000	-8.43230500000000	0.00000000000000	0.00000000000000	-15.87966400000000	0.00000000000000	
15.16494000000000	-9.76055000000000	51.85996800000000	-13.62972400000000	0.34494200000000	0.00000000000000	0.08730600000000	-53.71984400000000	784.22545600000001	-43.48503100000000	0.11576600000000	0.00000000000000	-0.07744100000000	0.00000000000000	-9.31556800000000	0.00000000000000	0.00000000000000	-15.86452400000000	0.00000000000000	
15.16660700000000	-10.23020500000000	58.39049900000000	-14.67308700000000	0.34754600000000	0.00000000000000	0.08817900000000	-54.55655400000000	781.27677000000006	-43.07467600000000	0.11487900000000	0.00000000000000	-0.07735500000000	0.00000000000000	-10.09866000000000	0.00000000000000	0.00000000000000	-15.85347200000000	0.00000000000000	
15.16828100000000	-10.50887500000000	64.81911599999999	-15.53410000000000	0.34992900000000	0.00000000000000	0.08900800000000	-55.41117800000000	778.22671300000002	-42.65425200000000	0.11398600000000	0.00000000000000	-0.07726900000000	0.00000000000000	-10.76807200000000	0.00000000000000	0.00000000000000	-15.84640700000000	0.00000000000000	
15.16994500000000	-10.59278000000000	71.10685100000001	-16.20442000000000	0.35212400000000	0.00000000000000	0.08979500000000	-56.28279700000000	775.07197199999996	-42.22359400000000	0.11308700000000	0.00000000000000	-0.07718200000000	0.00000000000000	-11.31723500000000	0.00000000000000	0.00000000000000	-15.84320200000000	0.00000000000000	
15.17161400000000	-10.48635700000000	77.23859000000000	-16.68521400000000	0.35415900000000	0.00000000000000	0.09054500000000	-57.17038100000000	771.80914199999995	-41.78253300000000	0.11218300000000	0.00000000000000	-0.07709600000000	0.00000000000000	-11.74605000000000	0.00000000000000	0.00000000000000	-15.84370900000000	0.00000000000000	
15.17328000000000	-10.20086900000000	83.22069500000001	-16.98572900000000	0.35605900000000	0.00000000000000	0.09126100000000	-58.07278700000000	768.43474400000002	-41.33089700000000	0.11127500000000	0.00000000000000	-0.07701000000000	0.00000000000000	-12.05996900000000	0.00000000000000	0.00000000000000	-15.84775900000000	0.00000000000000	
15.17494500000000	-9.75267700000000	89.07726500000000	-17.12144200000000	0.35784200000000	0.00000000000000	0.09194600000000	-58.98876200000000	764.94523100000004	-40.86851200000000	0.11036400000000	0.00000000000000	-0.07692300000000	0.00000000000000	-12.26877300000000	0.00000000000000	0.00000000000000	-15.85515900000000	0.00000000000000	
15.17661000000000	-9.16140300000000	94.84558199999999	-17.11202600000000	0.35952400000000	0.00000000000000	0.09260200000000	-59.91693600000000	761.33700699999997	-40.39520800000000	0.10945100000000	0.00000000000000	-0.07683700000000	0.00000000000000	-12.38521200000000	0.00000000000000	0.00000000000000	-15.86569500000000	0.00000000000000	
15.17827400000000	-8.44814100000000	100.57125499999999	-16.97931700000000	0.36112000000000	0.00000000000000	0.09323200000000	-60.85583300000000	757.60643800000003	-39.91081600000000	0.10853600000000	0.00000000000000	-0.07675000000000	0.00000000000000	-12.42362800000000	0.00000000000000	0.00000000000000	-15.87913100000000	0.00000000000000	
15.17995800000000	-7.63385100000000	106.30351500000000	-16.74546200000000	0.36264000000000	0.00000000000000	0.09383600000000	-61.80386200000000	753.74986999999999	-39.41517000000000	0.10762200000000	0.00000000000000	-0.07666300000000	0.00000000000000	-12.39869100000000	0.00000000000000	0.00000000000000	-15.89520900000000	0.00000000000000	
15.18161200000000	-6.73803800000000	112.09101600000000	-16.43135400000000	0.36409500000000	0.00000000000000	0.09441700000000	-62.75932500000000	749.76364300000000	-38.90811500000000	0.10670800000000	0.00000000000000	-0.07657600000000	0.00000000000000	-12.32432500000000	0.00000000000000	0.00000000000000	-15.91365200000000	0.00000000000000	
15.18327800000000	-5.77777100000000	117.97836700000001	-16.05543000000000	0.36549200000000	0.00000000000000	0.09497700000000	-63.72041700000000	745.64410599999997	-38.38950200000000	0.10579600000000	0.00000000000000	-0.07648800000000	0.00000000000000	-12.21286900000000	0.00000000000000	0.00000000000000	-15.93416000000000	0.00000000000000	
15.18494700000000	-4.76705600000000	124.00355200000000	-15.63286700000000	0.36683800000000	0.00000000000000	0.09551600000000	-64.68522900000001	741.38763800000004	-37.85919400000000	0.10488800000000	0.00000000000000	-0.07640000000000	0.00000000000000	-12.07451000000000	0.00000000000000	0.00000000000000	-15.95641600000000	0.00000000000000	
15.18661100000000	-3.71654700000000	130.19627000000000	-15.17516000000000	0.36813900000000	0.00000000000000	0.09603500000000	-65.65174900000000	736.99066100000005	-37.31706900000000	0.10398300000000	0.00000000000000	-0.07631100000000	0.00000000000000	-11.91696900000000	0.00000000000000	0.00000000000000	-15.98008100000000	0.00000000000000	
15.18827500000000	-2.63355800000000	136.57715899999999	-14.69005000000000	0.36939900000000	0.00000000000000	0.09653500000000	-66.61787099999999	732.44966399999998	-36.76301800000000	0.10308400000000	0.00000000000000	-0.07622100000000	0.00000000000000	-11.74543000000000	0.00000000000000	0.00000000000000	-16.00480100000000	0.00000000000000	
15.18994000000000	-1.52232600000000	143.15779400000000	-14.18174600000000	0.37062200000000	0.00000000000000	0.09701800000000	-67.58139300000001	727.76121400000000	-36.19695100000000	0.10219100000000	0.00000000000000	-0.07613100000000	0.00000000000000	-11.56266800000000	0.00000000000000	0.00000000000000	-16.03020300000000	0.00000000000000	
15.19160600000000	-0.38444800000000	149.94133099999999	-13.65136600000000	0.37181100000000	0.00000000000000	0.09748500000000	-68.54002699999999	722.92198499999995	-35.61879700000000	0.10130600000000	0.00000000000000	-0.07604000000000	0.00000000000000	-11.36933800000000	0.00000000000000	0.00000000000000	-16.05589800000000	0.00000000000000	
15.19328000000000	0.78056000000000	156.92362000000000	-13.09752600000000	0.37296800000000	0.00000000000000	0.09793500000000	-69.49139900000000	717.92877099999998	-35.02850900000000	0.10043000000000	0.00000000000000	-0.07594800000000	0.00000000000000	-11.16435600000000	0.00000000000000	0.00000000000000	-16.08148200000000	0.00000000000000	
15.19494400000000	1.97465500000000	164.09461600000000	-12.51701000000000	0.37409500000000	0.00000000000000	0.09837000000000	-70.43306100000000	712.77850999999998	-34.42606200000000	0.09956300000000	0.00000000000000	-0.07585500000000	0.00000000000000	-10.94535000000000	0.00000000000000	0.00000000000000	-16.10653700000000	0.00000000000000	
15.19661100000000	3.20066300000000	171.43994000000001	-11.90544800000000	0.37519400000000	0.00000000000000	0.09879000000000	-71.36249200000000	707.46830699999998	-33.81145400000000	0.09870700000000	0.00000000000000	-0.07576000000000	0.00000000000000	-10.70912000000000	0.00000000000000	0.00000000000000	-16.13063400000000	0.00000000000000	
15.19828200000000	4.46171700000000	178.94242900000000	-11.25795900000000	0.37626500000000	0.00000000000000	0.09919600000000	-72.27710600000000	701.99545100000000	-33.18471600000000	0.09786300000000	0.00000000000000	-0.07566500000000	0.00000000000000	-10.45207200000000	0.00000000000000	0.00000000000000	-16.15333000000000	0.00000000000000	
15.19994700000000	5.76078300000000	186.58358200000001	-10.56971000000000	0.37730800000000	0.00000000000000	0.09958800000000	-73.17426200000000	696.35743800000000	-32.54590200000000	0.09703200000000	0.00000000000000	-0.07556800000000	0.00000000000000	-10.17060800000000	0.00000000000000	0.00000000000000	-16.17417400000000	0.00000000000000	
15.20161300000000	7.10027700000000	194.34479800000000	-9.83637400000000	0.37832300000000	0.00000000000000	0.09996700000000	-74.05126500000000	690.55199400000004	-31.89509900000000	0.09621500000000	0.00000000000000	-0.07547000000000	0.00000000000000	-9.86143900000000	0.00000000000000	0.00000000000000	-16.19270700000000	0.00000000000000	
15.20327800000000	8.48180000000000	202.20837700000001	-9.05446400000000	0.37931100000000	0.00000000000000	0.10033300000000	-74.90538200000000	684.57709100000000	-31.23242600000000	0.09541200000000	0.00000000000000	-0.07537000000000	0.00000000000000	-9.52182700000000	0.00000000000000	0.00000000000000	-16.20846200000000	0.00000000000000	
15.20494300000000	9.90597000000000	210.15823100000000	-8.22155200000000	0.38027100000000	0.00000000000000	0.10068700000000	-75.73384299999999	678.43097299999999	-30.55803500000000	0.09462500000000	0.00000000000000	-0.07526900000000	0.00000000000000	-9.14973700000000	0.00000000000000	0.00000000000000	-16.22096800000000	0.00000000000000	
15.20661300000000	11.37237000000000	218.18033900000000	-7.33636700000000	0.38120200000000	0.00000000000000	0.10102900000000	-76.53385500000000	672.11216600000000	-29.87211100000000	0.09385400000000	0.00000000000000	-0.07516600000000	0.00000000000000	-8.74392000000000	0.00000000000000	0.00000000000000	-16.22975000000000	0.00000000000000	
15.20827800000000	12.87956300000000	226.26294200000001	-6.39880200000000	0.38210300000000	0.00000000000000	0.10135900000000	-77.30260699999999	665.61949900000002	-29.17487500000000	0.09310100000000	0.00000000000000	-0.07506100000000	0.00000000000000	-8.30391700000000	0.00000000000000	0.00000000000000	-16.23433200000000	0.00000000000000	
15.20994200000000	14.42518600000000	234.39653000000001	-5.40983400000000	0.38297400000000	0.00000000000000	0.10167800000000	-78.03728099999999	658.95211700000004	-28.46658800000000	0.09236500000000	0.00000000000000	-0.07495400000000	0.00000000000000	-7.83002400000000	0.00000000000000	0.00000000000000	-16.23423800000000	0.00000000000000	
15.21160900000000	16.00608500000000	242.57365400000000	-4.37139200000000	0.38381200000000	0.00000000000000	0.10198600000000	-78.73506000000000	652.10949200000005	-27.74754700000000	0.09164800000000	0.00000000000000	-0.07484500000000	0.00000000000000	-7.32319800000000	0.00000000000000	0.00000000000000	-16.22899500000000	0.00000000000000	
15.21327300000000	17.61848700000000	250.78863200000001	-3.28618300000000	0.38461700000000	0.00000000000000	0.10228400000000	-79.39314200000000	645.09142999999995	-27.01809200000000	0.09095000000000	0.00000000000000	-0.07473400000000	0.00000000000000	-6.78494600000000	0.00000000000000	0.00000000000000	-16.21813400000000	0.00000000000000	
15.21494700000000	19.25817100000000	259.03716500000002	-2.15750100000000	0.38538800000000	0.00000000000000	0.10257100000000	-80.00874500000000	637.89808300000004	-26.27860200000000	0.09027000000000	0.00000000000000	-0.07462100000000	0.00000000000000	-6.21720200000000	0.00000000000000	0.00000000000000	-16.20119200000000	0.00000000000000	
15.21660700000000	20.92064100000000	267.31594699999999	-0.98903800000000	0.38612100000000	0.00000000000000	0.10284900000000	-80.57912200000000	630.52994699999999	-25.52950400000000	0.08961100000000	0.00000000000000	-0.07450600000000	0.00000000000000	-5.62219500000000	0.00000000000000	0.00000000000000	-16.17771500000000	0.00000000000000	
15.21827700000000	22.60129000000000	275.62226800000002	0.21528900000000	0.38681700000000	0.00000000000000	0.10311700000000	-81.10156800000000	622.98786700000005	-24.77126800000000	0.08897200000000	0.00000000000000	-0.07438800000000	0.00000000000000	-5.00233200000000	0.00000000000000	0.00000000000000	-16.14726200000000	0.00000000000000	
15.21994000000000	24.29552600000000	283.95366600000000	1.45149900000000	0.38747400000000	0.00000000000000	0.10337500000000	-81.57343600000000	615.27304000000004	-24.00441300000000	0.08835200000000	0.00000000000000	-0.07426800000000	0.00000000000000	-4.36009500000000	0.00000000000000	0.00000000000000	-16.10940200000000	0.00000000000000	
